<?xml version="1.0" encoding="utf-8"?>
<!-- Generator: Adobe Illustrator 25.0.1, SVG Export Plug-In . SVG Version: 6.00 Build 0)  -->
<svg version="1.1" id="Capa_1" xmlns="http://www.w3.org/2000/svg" xmlns:xlink="http://www.w3.org/1999/xlink" x="0px" y="0px"
	 viewBox="0 0 40 40" style="enable-background:new 0 0 40 40;" xml:space="preserve">
<style type="text/css">
	.st0{fill:#FFFFFF;}
	.st1{filter:url(#Adobe_OpacityMaskFilter);}
	.st2{fill-rule:evenodd;clip-rule:evenodd;fill:#FFFFFF;}
	.st3{mask:url(#mask-2_1_);}
	.st4{fill-rule:evenodd;clip-rule:evenodd;}
</style>
<desc>Created with Sketch.</desc>
<rect id="Rectangle-Copy-8" x="0.5" y="0.5" class="st0" width="39" height="39"/>
<g id="Shape">
	<path id="path-1_1_" d="M18.4,20l5.3-5.3c0.4-0.4,0.4-1,0-1.4c-0.4-0.4-1-0.4-1.4,0l-6,6c-0.4,0.4-0.4,1,0,1.4l6,6
		c0.4,0.4,1,0.4,1.4,0c0.4-0.4,0.4-1,0-1.4L18.4,20z"/>
</g>
<defs>
	<filter id="Adobe_OpacityMaskFilter" filterUnits="userSpaceOnUse" x="8" y="8" width="24" height="24">
		<feColorMatrix  type="matrix" values="1 0 0 0 0  0 1 0 0 0  0 0 1 0 0  0 0 0 1 0"/>
	</filter>
</defs>
<mask maskUnits="userSpaceOnUse" x="8" y="8" width="24" height="24" id="mask-2_1_">
	<g class="st1">
		<path id="path-1_2_" class="st2" d="M18.4,20l5.3-5.3c0.4-0.4,0.4-1,0-1.4c-0.4-0.4-1-0.4-1.4,0l-6,6c-0.4,0.4-0.4,1,0,1.4l6,6
			c0.4,0.4,1,0.4,1.4,0c0.4-0.4,0.4-1,0-1.4L18.4,20z"/>
	</g>
</mask>
<g id="Primary-color-Copy-2" class="st3">
	<rect id="Rectangle" x="8" y="8" class="st4" width="24" height="24"/>
</g>
</svg>
